<svg width="20" height="20" viewBox="0 0 20 20" fill="none" xmlns="http://www.w3.org/2000/svg">
<path d="M6.66655 9.16675C6.50174 9.16675 6.34062 9.21562 6.20358 9.30719C6.06654 9.39876 5.95973 9.52891 5.89666 9.68118C5.83358 9.83345 5.81708 10.001 5.84923 10.1627C5.88139 10.3243 5.96076 10.4728 6.0773 10.5893C6.19384 10.7059 6.34233 10.7852 6.50398 10.8174C6.66563 10.8496 6.83319 10.8331 6.98546 10.77C7.13773 10.7069 7.26788 10.6001 7.35945 10.4631C7.45101 10.326 7.49989 10.1649 7.49989 10.0001C7.49989 9.77907 7.41209 9.56711 7.25581 9.41083C7.09953 9.25455 6.88757 9.16675 6.66655 9.16675ZM9.99989 9.16675C9.83507 9.16675 9.67395 9.21562 9.53691 9.30719C9.39987 9.39876 9.29306 9.52891 9.22999 9.68118C9.16692 9.83345 9.15041 10.001 9.18257 10.1627C9.21472 10.3243 9.29409 10.4728 9.41063 10.5893C9.52718 10.7059 9.67566 10.7852 9.83731 10.8174C9.99896 10.8496 10.1665 10.8331 10.3188 10.77C10.4711 10.7069 10.6012 10.6001 10.6928 10.4631C10.7843 10.326 10.8332 10.1649 10.8332 10.0001C10.8332 9.77907 10.7454 9.56711 10.5891 9.41083C10.4329 9.25455 10.2209 9.16675 9.99989 9.16675ZM13.3332 9.16675C13.1684 9.16675 13.0073 9.21562 12.8702 9.30719C12.7332 9.39876 12.6264 9.52891 12.5633 9.68118C12.5002 9.83345 12.4837 10.001 12.5159 10.1627C12.5481 10.3243 12.6274 10.4728 12.744 10.5893C12.8605 10.7059 13.009 10.7852 13.1706 10.8174C13.3323 10.8496 13.4999 10.8331 13.6521 10.77C13.8044 10.7069 13.9345 10.6001 14.0261 10.4631C14.1177 10.326 14.1666 10.1649 14.1666 10.0001C14.1666 9.77907 14.0788 9.56711 13.9225 9.41083C13.7662 9.25455 13.5542 9.16675 13.3332 9.16675ZM9.99989 1.66675C8.90554 1.66675 7.82191 1.8823 6.81086 2.30109C5.79981 2.71987 4.88115 3.3337 4.10733 4.10752C2.54453 5.67033 1.66656 7.78994 1.66656 10.0001C1.65927 11.9244 2.32555 13.7905 3.54989 15.2751L1.88322 16.9417C1.76759 17.0589 1.68926 17.2077 1.65812 17.3694C1.62697 17.5311 1.64441 17.6983 1.70822 17.8501C1.77744 18 1.88964 18.126 2.03059 18.2121C2.17155 18.2981 2.33489 18.3404 2.49989 18.3334H9.99989C12.21 18.3334 14.3296 17.4554 15.8924 15.8926C17.4552 14.3298 18.3332 12.2102 18.3332 10.0001C18.3332 7.78994 17.4552 5.67033 15.8924 4.10752C14.3296 2.54472 12.21 1.66675 9.99989 1.66675ZM9.99989 16.6667H4.50822L5.28322 15.8917C5.36196 15.8146 5.4246 15.7225 5.46752 15.621C5.51043 15.5194 5.53276 15.4103 5.53322 15.3001C5.53009 15.0803 5.44023 14.8706 5.28322 14.7167C4.19204 13.6268 3.51253 12.1922 3.36046 10.6574C3.20839 9.12262 3.59317 7.58259 4.44924 6.29968C5.30531 5.01678 6.57971 4.07038 8.05532 3.62173C9.53092 3.17307 11.1164 3.24992 12.5417 3.83918C13.967 4.42843 15.1439 5.49364 15.8719 6.85332C16.5999 8.213 16.8339 9.78303 16.5342 11.2959C16.2344 12.8088 15.4193 14.171 14.2278 15.1503C13.0364 16.1296 11.5422 16.6655 9.99989 16.6667Z" fill="black"/>
</svg>
