<svg width="20" height="20" viewBox="0 0 20 20" fill="none" xmlns="http://www.w3.org/2000/svg">
<path fill-rule="evenodd" clip-rule="evenodd" d="M9.9999 0.833252C8.45281 0.833252 6.96908 1.44783 5.87511 2.5418C4.78115 3.63576 4.16657 5.11949 4.16657 6.66659C4.16657 9.46047 3.56901 11.1954 3.01832 12.205C2.74183 12.712 2.47259 13.0445 2.28557 13.2419C2.19184 13.3408 2.11818 13.4064 2.07384 13.4434C2.05165 13.4619 2.03677 13.4732 2.03036 13.478L2.02798 13.4798C1.72924 13.685 1.59704 14.0603 1.70233 14.4081C1.80874 14.7595 2.13268 14.9999 2.4999 14.9999H17.4999C17.8671 14.9999 18.1911 14.7595 18.2975 14.4081C18.4028 14.0603 18.2706 13.685 17.9718 13.4798L17.9694 13.478C17.963 13.4732 17.9482 13.4619 17.926 13.4434C17.8816 13.4064 17.808 13.3408 17.7142 13.2419C17.5272 13.0445 17.258 12.712 16.9815 12.205C16.4308 11.1954 15.8332 9.46047 15.8332 6.66659C15.8332 5.11949 15.2187 3.63576 14.1247 2.5418C13.0307 1.44783 11.547 0.833252 9.9999 0.833252ZM15.5183 13.0031C15.5817 13.1194 15.6454 13.2294 15.7088 13.3333H4.29101C4.35441 13.2294 4.41807 13.1194 4.48148 13.0031C5.18079 11.7211 5.83324 9.70604 5.83324 6.66659C5.83324 5.56152 6.27222 4.50171 7.05362 3.72031C7.83503 2.93891 8.89483 2.49992 9.9999 2.49992C11.105 2.49992 12.1648 2.93891 12.9462 3.72031C13.7276 4.50171 14.1666 5.56152 14.1666 6.66659C14.1666 9.70604 14.819 11.7211 15.5183 13.0031ZM9.27908 17.0818C9.04815 16.6837 8.53821 16.5482 8.14011 16.7791C7.742 17.0101 7.60648 17.52 7.83742 17.9181C8.05718 18.2969 8.37261 18.6114 8.75213 18.83C9.13165 19.0486 9.56194 19.1637 9.99991 19.1637C10.4379 19.1637 10.8682 19.0486 11.2477 18.83C11.6272 18.6114 11.9427 18.2969 12.1624 17.9181C12.3933 17.52 12.2578 17.0101 11.8597 16.7791C11.4616 16.5482 10.9517 16.6837 10.7207 17.0818C10.6475 17.2081 10.5423 17.3129 10.4158 17.3858C10.2893 17.4586 10.1459 17.497 9.99991 17.497C9.85392 17.497 9.71049 17.4586 9.58399 17.3858C9.45748 17.3129 9.35234 17.2081 9.27908 17.0818Z" fill="black"/>
</svg>
