<svg width="20" height="21" viewBox="0 0 20 21" fill="none" xmlns="http://www.w3.org/2000/svg">
<path d="M15.8335 10.1619H10.8335V5.16195C10.8335 4.94093 10.7457 4.72897 10.5894 4.57269C10.4331 4.41641 10.2212 4.32861 10.0002 4.32861C9.77915 4.32861 9.56719 4.41641 9.41091 4.57269C9.25463 4.72897 9.16683 4.94093 9.16683 5.16195V10.1619H4.16683C3.94582 10.1619 3.73385 10.2497 3.57757 10.406C3.42129 10.5623 3.3335 10.7743 3.3335 10.9953C3.3335 11.2163 3.42129 11.4283 3.57757 11.5845C3.73385 11.7408 3.94582 11.8286 4.16683 11.8286H9.16683V16.8286C9.16683 17.0496 9.25463 17.2616 9.41091 17.4179C9.56719 17.5741 9.77915 17.6619 10.0002 17.6619C10.2212 17.6619 10.4331 17.5741 10.5894 17.4179C10.7457 17.2616 10.8335 17.0496 10.8335 16.8286V11.8286H15.8335C16.0545 11.8286 16.2665 11.7408 16.4228 11.5845C16.579 11.4283 16.6668 11.2163 16.6668 10.9953C16.6668 10.7743 16.579 10.5623 16.4228 10.406C16.2665 10.2497 16.0545 10.1619 15.8335 10.1619Z" fill="#959595"/>
</svg>
