<svg width="20" height="20" viewBox="0 0 20 20" fill="none" xmlns="http://www.w3.org/2000/svg">
<path d="M10.8332 13.3333H2.49984C2.27882 13.3333 2.06686 13.4211 1.91058 13.5774C1.7543 13.7337 1.6665 13.9457 1.6665 14.1667C1.6665 14.3877 1.7543 14.5996 1.91058 14.7559C2.06686 14.9122 2.27882 15 2.49984 15H10.8332C11.0542 15 11.2661 14.9122 11.4224 14.7559C11.5787 14.5996 11.6665 14.3877 11.6665 14.1667C11.6665 13.9457 11.5787 13.7337 11.4224 13.5774C11.2661 13.4211 11.0542 13.3333 10.8332 13.3333ZM2.49984 6.66667H17.4998C17.7209 6.66667 17.9328 6.57887 18.0891 6.42259C18.2454 6.26631 18.3332 6.05435 18.3332 5.83333C18.3332 5.61232 18.2454 5.40036 18.0891 5.24408C17.9328 5.0878 17.7209 5 17.4998 5H2.49984C2.27882 5 2.06686 5.0878 1.91058 5.24408C1.7543 5.40036 1.6665 5.61232 1.6665 5.83333C1.6665 6.05435 1.7543 6.26631 1.91058 6.42259C2.06686 6.57887 2.27882 6.66667 2.49984 6.66667ZM17.4998 9.16667H2.49984C2.27882 9.16667 2.06686 9.25446 1.91058 9.41074C1.7543 9.56702 1.6665 9.77899 1.6665 10C1.6665 10.221 1.7543 10.433 1.91058 10.5893C2.06686 10.7455 2.27882 10.8333 2.49984 10.8333H17.4998C17.7209 10.8333 17.9328 10.7455 18.0891 10.5893C18.2454 10.433 18.3332 10.221 18.3332 10C18.3332 9.77899 18.2454 9.56702 18.0891 9.41074C17.9328 9.25446 17.7209 9.16667 17.4998 9.16667Z" fill="#959595"/>
</svg>
